SplineFontDB: 3.2
FontName: CopperplateSansBoldCC
FullName: Copperplate Sans CC
FamilyName: Copperplate Sans CC
Weight: Bold
Copyright: Copyright 2020 The Cowboy Collective (https://cowboycollective.cc)
UComments: "Made with love by indestructible type* for the Cowboy Collective"
Version: 001.000
ItalicAngle: 0
UnderlinePosition: -100
UnderlineWidth: 50
Ascent: 800
Descent: 200
InvalidEm: 0
LayerCount: 2
Layer: 0 0 "Back" 1
Layer: 1 0 "Fore" 0
PreferredKerning: 4
XUID: [1021 31 -699969567 16188444]
FSType: 0
OS2Version: 0
OS2_WeightWidthSlopeOnly: 0
OS2_UseTypoMetrics: 0
CreationTime: 1465610489
ModificationTime: 1662967666
PfmFamily: 33
TTFWeight: 700
TTFWidth: 5
LineGap: 0
VLineGap: 0
OS2TypoAscent: 1030
OS2TypoAOffset: 0
OS2TypoDescent: -350
OS2TypoDOffset: 0
OS2TypoLinegap: 0
OS2WinAscent: 1030
OS2WinAOffset: 0
OS2WinDescent: 350
OS2WinDOffset: 0
HheadAscent: 1030
HheadAOffset: 0
HheadDescent: -350
HheadDOffset: 0
OS2CapHeight: 700
OS2XHeight: 460
OS2Vendor: 'it* '
Lookup: 258 0 0 "'kern' Horizontal Kerning lookup 0" { "kerning like they all do" [150,0,6] } ['kern' ('DFLT' <'dflt' > 'grek' <'dflt' > 'latn' <'dflt' > ) ]
MarkAttachClasses: 1
DEI: 91125
KernClass2: 9 7 "kerning like they all do"
 13 A backslash a
 7 D O d o
 11 E K X e k x
 7 V W v w
 3 L l
 7 F T f t
 3 Y y
 7 J U j u
 13 slash A J a j
 15 C G O Q c g o q
 17 V W backslash v w
 3 X x
 3 T t
 3 Y y
 0 {} 0 {} 0 {} 0 {} 0 {} 0 {} 0 {} 0 {} 10 {} -30 {} -60 {} 10 {} -60 {} -80 {} 0 {} -30 {} 0 {} -30 {} -30 {} -10 {} -25 {} 0 {} 10 {} -30 {} 5 {} 10 {} 20 {} 0 {} 0 {} -60 {} -40 {} 30 {} 0 {} 0 {} 0 {} 0 {} 20 {} -20 {} -60 {} 0 {} -90 {} -70 {} 0 {} -60 {} -10 {} 20 {} 20 {} 40 {} 30 {} 0 {} 0 {} -25 {} 0 {} 0 {} 30 {} 30 {} 0 {} -30 {} 0 {} 0 {} 0 {} 0 {} 0 {}

StartChar: H
Encoding: 72 72 0
GlifName: H_
Width: 835
VWidth: 0
Flags: HMW
AnchorPoint: "top" 419 700 basechar 0
AnchorPoint: "bottom" 419 0 basechar 0
AnchorPoint: "cedilla" 162 0 basechar 0
LayerCount: 2
Fore
SplineSet
595 700 m 257
 750 700 l 257
 750 0 l 257
 595 0 l 257
 595 700 l 257
147 290 m 257
 147 425 l 257
 720 425 l 257
 720 290 l 257
 147 290 l 257
85 700 m 257
 240 700 l 257
 240 0 l 257
 85 0 l 257
 85 700 l 257
EndSplineSet
EndChar

StartChar: O
Encoding: 79 79 1
GlifName: O_
Width: 910
VWidth: 0
Flags: HMW
AnchorPoint: "top" 455 700 basechar 0
AnchorPoint: "bottom" 455 0 basechar 0
LayerCount: 2
Fore
SplineSet
215 350 m 256
 215 206 322 130 455 130 c 256
 588 130 695 206 695 350 c 256
 695 494 588 570 455 570 c 256
 322 570 215 494 215 350 c 256
50 350 m 256
 50 584 236 710 455 710 c 256
 674 710 860 584 860 350 c 256
 860 116 674 -10 455 -10 c 256
 236 -10 50 116 50 350 c 256
EndSplineSet
EndChar

StartChar: I
Encoding: 73 73 2
GlifName: I_
Width: 340
VWidth: 0
Flags: HMW
AnchorPoint: "top" 170 700 basechar 0
AnchorPoint: "bottom" 170 0 basechar 0
AnchorPoint: "cedilla" 170 0 basechar 0
LayerCount: 2
Fore
SplineSet
85 700 m 257
 255 700 l 257
 255 0 l 257
 85 0 l 257
 85 700 l 257
EndSplineSet
EndChar

StartChar: C
Encoding: 67 67 3
GlifName: C_
Width: 855
VWidth: 0
Flags: HMW
AnchorPoint: "top" 475 700 basechar 0
AnchorPoint: "bottom" 475 0 basechar 0
AnchorPoint: "top" 475 0 entry 0
AnchorPoint: "cedilla" 475 0 basechar 0
LayerCount: 2
Fore
SplineSet
215 350 m 256
 215 212 307 130 475 130 c 256
 584 130 669 180 728 232 c 257
 820 115 l 257
 751 63 637 -10 475 -10 c 256
 212 -10 50 136 50 350 c 256
 50 564 212 710 475 710 c 256
 637 710 741 647 800 605 c 257
 709 486 l 257
 660 528 584 570 475 570 c 256
 307 570 215 488 215 350 c 256
EndSplineSet
EndChar

StartChar: E
Encoding: 69 69 4
GlifName: E_
Width: 746
VWidth: 0
Flags: HMW
AnchorPoint: "top" 387 700 basechar 0
AnchorPoint: "bottom" 373 0 basechar 0
AnchorPoint: "cedilla" 578 0 basechar 0
LayerCount: 2
Fore
SplineSet
157 0 m 257
 157 140 l 257
 701 140 l 257
 701 0 l 257
 157 0 l 257
157 560 m 257
 157 700 l 257
 701 700 l 257
 701 560 l 257
 157 560 l 257
157 290 m 257
 157 425 l 257
 531 425 l 257
 531 290 l 257
 157 290 l 257
85 700 m 257
 245 700 l 257
 245 0 l 257
 85 0 l 257
 85 700 l 257
EndSplineSet
EndChar

StartChar: F
Encoding: 70 70 6
GlifName: F_
Width: 731
VWidth: 0
Flags: HMW
AnchorPoint: "top" 407 700 basechar 0
AnchorPoint: "bottom" 164 0 basechar 0
LayerCount: 2
Fore
SplineSet
157 560 m 257
 157 700 l 257
 701 700 l 257
 701 560 l 257
 157 560 l 257
157 290 m 257
 157 425 l 257
 541 425 l 257
 541 290 l 257
 157 290 l 257
85 700 m 257
 245 700 l 257
 245 0 l 257
 85 0 l 257
 85 700 l 257
EndSplineSet
EndChar

StartChar: G
Encoding: 71 71 7
GlifName: G_
Width: 875
VWidth: 0
Flags: HMW
AnchorPoint: "top" 475 700 basechar 0
AnchorPoint: "bottom" 475 0 basechar 0
AnchorPoint: "cedilla" 475 0 basechar 0
LayerCount: 2
Fore
SplineSet
805 380 m 257
 805 255 l 257
 472 255 l 257
 472 380 l 257
 805 380 l 257
650 380 m 257
 805 380 l 257
 805 85 l 257
 650 85 l 257
 650 380 l 257
215 350 m 256
 215 212 309 130 475 130 c 256
 574 130 646 170 705 212 c 257
 805 85 l 257
 736 43 647 -10 475 -10 c 256
 231 -10 50 126 50 350 c 256
 50 574 231 710 475 710 c 256
 647 710 741 647 800 605 c 257
 708 486 l 257
 659 528 584 570 475 570 c 256
 309 570 215 488 215 350 c 256
EndSplineSet
EndChar

StartChar: T
Encoding: 84 84 8
GlifName: T_
Width: 705
VWidth: 0
Flags: HMW
AnchorPoint: "top" 361 700 basechar 0
AnchorPoint: "bottom" 364 0 basechar 0
AnchorPoint: "cedilla" 364 0 basechar 0
LayerCount: 2
Fore
SplineSet
10 565 m 257
 10 700 l 257
 695 700 l 257
 695 565 l 257
 10 565 l 257
275 700 m 257
 430 700 l 257
 430 0 l 257
 275 0 l 257
 275 700 l 257
EndSplineSet
EndChar

StartChar: L
Encoding: 76 76 9
GlifName: L_
Width: 720
VWidth: 0
Flags: HMW
AnchorPoint: "top" 167 700 basechar 0
AnchorPoint: "bottom" 408 0 basechar 0
AnchorPoint: "cedilla" 408 0 basechar 0
LayerCount: 2
Fore
SplineSet
152 0 m 257
 152 140 l 257
 705 140 l 257
 705 0 l 257
 152 0 l 257
85 700 m 257
 250 700 l 257
 250 0 l 257
 85 0 l 257
 85 700 l 257
EndSplineSet
EndChar

StartChar: D
Encoding: 68 68 10
GlifName: D_
Width: 852
VWidth: 0
Flags: HMW
AnchorPoint: "top" 387 700 basechar 0
AnchorPoint: "bottom" 356 0 basechar 0
AnchorPoint: "cedilla" 356 0 basechar 0
LayerCount: 2
Fore
SplineSet
85 700 m 257
 255 700 l 257
 255 0 l 257
 85 0 l 257
 85 700 l 257
447 0 m 258
 132 0 l 257
 132 140 l 257
 427 140 l 258
 555 140 627 217 627 350 c 256
 627 483 555 560 427 560 c 258
 132 560 l 257
 132 700 l 257
 447 700 l 258
 651 700 797 569 797 350 c 256
 797 131 651 0 447 0 c 258
EndSplineSet
EndChar

StartChar: Q
Encoding: 81 81 11
GlifName: Q_
Width: 870
VWidth: 0
Flags: HMW
AnchorPoint: "top" 435 700 basechar 0
LayerCount: 2
Fore
SplineSet
50 350 m 256
 50 574 216 710 435 710 c 256
 654 710 820 574 820 350 c 256
 820 126 654 -10 435 -10 c 256
 216 -10 50 126 50 350 c 256
215 350 m 256
 215 206 292 125 435 125 c 256
 578 125 655 206 655 350 c 256
 655 494 578 575 435 575 c 256
 292 575 215 494 215 350 c 256
426 232 m 0
 586 232 593 0 763 -10 c 1
 666 -101 l 1
 513 -42 480 175 380 175 c 0
 351 175 326 162 326 127 c 1
 311 127 l 1
 311 177 351 232 426 232 c 0
EndSplineSet
EndChar

StartChar: A
Encoding: 65 65 12
GlifName: A_
Width: 794
VWidth: 0
Flags: HMW
AnchorPoint: "cedilla" 689 0 basechar 0
AnchorPoint: "bottom" 412 0 basechar 0
AnchorPoint: "top" 395 700 basechar 0
LayerCount: 2
Fore
SplineSet
179 162 m 257
 209 290 l 257
 599 290 l 257
 629 162 l 257
 179 162 l 257
397 561 m 257
 182 0 l 257
 10 0 l 257
 295 700 l 257
 499 700 l 1
 784 0 l 257
 612 0 l 257
 397 561 l 257
EndSplineSet
EndChar

StartChar: R
Encoding: 82 82 13
GlifName: R_
Width: 785
VWidth: 0
Flags: HMW
AnchorPoint: "top" 363 700 basechar 0
AnchorPoint: "bottom" 398 0 basechar 0
AnchorPoint: "cedilla" 163 0 basechar 0
LayerCount: 2
Fore
SplineSet
85 700 m 257
 245 700 l 257
 245 0 l 257
 85 0 l 257
 85 700 l 257
132 560 m 257
 132 700 l 257
 505 700 l 258
 630 700 743 644 743 490 c 256
 743 337 630 295 505 295 c 258
 132 295 l 257
 132 420 l 257
 495 420 l 258
 559 420 588 444 588 490 c 256
 588 536 559 560 495 560 c 258
 132 560 l 257
345 360 m 257
 505 360 l 257
 760 0 l 257
 555 0 l 257
 345 360 l 257
EndSplineSet
EndChar

StartChar: V
Encoding: 86 86 14
GlifName: V_
Width: 794
VWidth: 0
Flags: HMW
AnchorPoint: "top" 419 700 basechar 0
AnchorPoint: "bottom" 397 0 basechar 0
LayerCount: 2
Fore
SplineSet
397 139 m 257
 612 700 l 257
 784 700 l 257
 499 0 l 257
 295 0 l 1
 10 700 l 257
 182 700 l 257
 397 139 l 257
EndSplineSet
EndChar

StartChar: M
Encoding: 77 77 15
GlifName: M_
Width: 930
VWidth: 0
Flags: HMW
AnchorPoint: "top" 465 700 basechar 0
AnchorPoint: "bottom" 465 0 basechar 0
LayerCount: 2
Fore
SplineSet
235 490 m 257
 235 700 l 1
 290 700 l 257
 465 323 l 257
 640 700 l 257
 695 700 l 1
 695 490 l 257
 465 -10 l 257
 235 490 l 257
695 700 m 257
 845 700 l 257
 845 0 l 257
 695 0 l 257
 695 700 l 257
85 700 m 257
 235 700 l 257
 235 0 l 257
 85 0 l 257
 85 700 l 257
EndSplineSet
EndChar

StartChar: W
Encoding: 87 87 16
GlifName: W_
Width: 1140
VWidth: 0
Flags: HMW
AnchorPoint: "top" 548 700 basechar 0
AnchorPoint: "bottom" 528 0 basechar 0
LayerCount: 2
Fore
SplineSet
790 221 m 257
 950 700 l 257
 1125 700 l 257
 875 0 l 257
 725 0 l 1
 525 620 l 257
 495 700 l 1
 645 700 l 257
 790 221 l 257
350 231 m 257
 495 700 l 257
 645 700 l 1
 615 620 l 257
 415 0 l 257
 265 0 l 1
 15 700 l 257
 190 700 l 257
 350 231 l 257
EndSplineSet
EndChar

StartChar: N
Encoding: 78 78 17
GlifName: N_
Width: 870
VWidth: 0
Flags: HMW
AnchorPoint: "top" 474 700 basechar 0
AnchorPoint: "bottom" 424 0 basechar 0
LayerCount: 2
Fore
SplineSet
233 500 m 257
 235 700 l 1
 265 700 l 257
 635 233 l 257
 625 0 l 257
 233 500 l 257
635 700 m 257
 785 700 l 257
 785 0 l 257
 625 0 l 1
 635 233 l 257
 635 700 l 257
85 700 m 257
 235 700 l 257
 235 0 l 257
 85 0 l 257
 85 700 l 257
EndSplineSet
EndChar

StartChar: X
Encoding: 88 88 19
GlifName: X_
Width: 685
VWidth: 0
Flags: HMW
AnchorPoint: "top" 358 700 basechar 0
AnchorPoint: "bottom" 363 0 basechar 0
LayerCount: 2
Fore
SplineSet
495 700 m 257
 675 700 l 257
 443 362 l 257
 680 0 l 257
 500 0 l 257
 345 250 l 257
 185 0 l 257
 5 0 l 257
 248 362 l 257
 20 700 l 257
 200 700 l 257
 346 464 l 257
 495 700 l 257
EndSplineSet
EndChar

StartChar: K
Encoding: 75 75 20
GlifName: K_
Width: 795
VWidth: 0
Flags: HMW
AnchorPoint: "top" 401 700 basechar 0
AnchorPoint: "bottom" 395 0 basechar 0
AnchorPoint: "cedilla" 164 0 basechar 0
LayerCount: 2
Fore
SplineSet
355 380 m 257
 465 488 l 257
 775 0 l 257
 576 0 l 257
 355 380 l 257
552 700 m 257
 760 700 l 257
 180 150 l 257
 120 249 l 257
 552 700 l 257
85 700 m 257
 245 700 l 257
 245 0 l 257
 85 0 l 257
 85 700 l 257
EndSplineSet
EndChar

StartChar: Y
Encoding: 89 89 21
GlifName: Y_
Width: 701
VWidth: 0
Flags: HMW
AnchorPoint: "top" 330 700 basechar 0
AnchorPoint: "bottom" 345 0 basechar 0
LayerCount: 2
Fore
SplineSet
531 700 m 257
 706 700 l 257
 430 272 l 257
 430 0 l 257
 266 0 l 257
 266 271 l 257
 -5 700 l 257
 175 700 l 257
 348 396 l 257
 531 700 l 257
EndSplineSet
EndChar

StartChar: B
Encoding: 66 66 22
GlifName: B_
Width: 803
VWidth: 0
Flags: HMW
AnchorPoint: "top" 337 700 basechar 0
AnchorPoint: "bottom" 333 0 basechar 0
LayerCount: 2
Fore
SplineSet
156 341 m 257
 156 435 l 257
 475 435 l 258
 545 435 575 453 575 499 c 256
 575 538 545 560 485 560 c 258
 239 560 l 257
 239 140 l 257
 490 140 l 258
 550 140 593 159 593 225 c 256
 593 281 550 305 490 305 c 258
 156 305 l 257
 156 376 l 257
 525 376 l 258
 670 376 753 309 753 190 c 256
 753 71 670 0 525 0 c 258
 85 0 l 257
 85 700 l 257
 505 700 l 258
 650 700 735 629 735 520 c 256
 735 374 600 341 495 341 c 258
 156 341 l 257
EndSplineSet
EndChar

StartChar: Z
Encoding: 90 90 23
GlifName: Z_
Width: 744
VWidth: 0
Flags: HMW
AnchorPoint: "top" 358 700 basechar 0
AnchorPoint: "bottom" 393 0 basechar 0
LayerCount: 2
Fore
SplineSet
40 560 m 257
 40 700 l 257
 699 700 l 257
 699 685 l 1
 300 140 l 257
 685 140 l 257
 685 0 l 257
 30 0 l 257
 30 15 l 1
 432 560 l 257
 40 560 l 257
EndSplineSet
EndChar

StartChar: J
Encoding: 74 74 25
GlifName: J_
Width: 622
VWidth: 0
Flags: HMW
AnchorPoint: "top" 403 700 basechar 0
AnchorPoint: "bottom" 284 0 basechar 0
LayerCount: 2
Fore
SplineSet
80 211 m 257
 114 180 185 125 281 125 c 256
 351 125 377 156 377 215 c 258
 377 700 l 257
 542 700 l 257
 542 180 l 258
 542 41 428 -20 274 -20 c 256
 171 -20 61 30 16 70 c 257
 80 211 l 257
EndSplineSet
EndChar

StartChar: P
Encoding: 80 80 50
GlifName: P_
Width: 753
VWidth: 0
Flags: HMW
AnchorPoint: "top" 343 700 basechar 0
AnchorPoint: "bottom" 168 0 basechar 0
LayerCount: 2
Fore
SplineSet
85 700 m 257
 245 700 l 257
 245 0 l 257
 85 0 l 257
 85 700 l 257
132 560 m 257
 132 700 l 257
 480 700 l 258
 605 700 718 654 718 480 c 256
 718 307 605 260 480 260 c 258
 132 260 l 257
 132 400 l 257
 470 400 l 258
 519 400 553 414 553 480 c 256
 553 546 519 560 470 560 c 258
 132 560 l 257
EndSplineSet
EndChar

StartChar: U
Encoding: 85 85 51
GlifName: U_
Width: 810
VWidth: 0
Flags: HMW
AnchorPoint: "top" 415 700 basechar 0
AnchorPoint: "bottom" 405 0 basechar 0
AnchorPoint: "cedilla" 405 0 basechar 0
LayerCount: 2
Fore
SplineSet
75 700 m 257
 230 700 l 257
 230 242 l 258
 230 156 295 120 405 120 c 256
 525 120 580 156 580 242 c 258
 580 700 l 257
 735 700 l 257
 735 230 l 258
 735 61 580 -10 405 -10 c 256
 230 -10 75 61 75 230 c 258
 75 700 l 257
EndSplineSet
EndChar

StartChar: S
Encoding: 83 83 52
GlifName: S_
Width: 764
VWidth: 0
Flags: HMW
AnchorPoint: "top" 390 700 basechar 0
AnchorPoint: "bottom" 410 0 basechar 0
AnchorPoint: "cedilla" 410 0 basechar 0
LayerCount: 2
Fore
SplineSet
98 219 m 257
 164 175 251 133 395 133 c 256
 520 133 581 156 581 211 c 256
 581 266 518.91796875 283.310546875 369 295 c 256
 155.212560004 311.669504526 62 374 62 501 c 256
 62 655 211 720 390 720 c 256
 543 720 638 679 703 635 c 257
 631 521 l 257
 584 551 492 580 380 580 c 256
 274 580 222 550 222 508 c 256
 222 452 278.201171875 438.491210938 438 426 c 256
 641.58984375 410.0859375 734 352 734 210 c 256
 734 62 590.5859375 -12.8974609375 390 -10 c 256
 215.659179688 -7.4814453125 105 37.1396484375 50 82 c 257
 98 219 l 257
EndSplineSet
EndChar

StartChar: at
Encoding: 64 64 53
GlifName: at
Width: 770
VWidth: 0
Flags: HMW
LayerCount: 2
Fore
SplineSet
331 320 m 0
 331 280 344 258 365 258 c 0
 395 258 426 305 426 362 c 0
 426 406 413 424 391 424 c 0
 357 424 331 374 331 320 c 0
198 312 m 0
 198 451 277 530 354 530 c 0
 422 530 476 457 476 370 c 0
 476 231 406 152 328 152 c 0
 246 152 198 213 198 312 c 0
14 320 m 0
 14 547 183 726 415 726 c 0
 629 726 756 557 756 390 c 0
 756 212 660 152 570 152 c 0
 501 152 432 196 442 262 c 1
 426 302 l 1
 446 520 l 1
 565 520 l 1
 544 314 l 2
 543 307 542 294 542 286 c 0
 542 262 558 253 574 253 c 0
 596 253 632 272 632 390 c 0
 632 525 569 616 415 616 c 0
 243 616 138 495 138 320 c 0
 138 174 216 80 382 80 c 0
 452 80 505 96 561 122 c 1
 598 22 l 1
 538 -11 463 -30 365 -30 c 0
 135 -30 14 121 14 320 c 0
EndSplineSet
EndChar

StartChar: period
Encoding: 46 46 54
GlifName: period
Width: 380
VWidth: 0
Flags: HMW
LayerCount: 2
Fore
SplineSet
80 95 m 260
 80 153 129 205 190 205 c 260
 251 205 300 153 300 95 c 260
 300 37 251 -15 190 -15 c 260
 129 -15 80 37 80 95 c 260
EndSplineSet
EndChar

StartChar: comma
Encoding: 44 44 55
GlifName: comma
Width: 387
VWidth: 2000
Flags: HMW
LayerCount: 2
Fore
SplineSet
75 94 m 0
 75 155 131 205 192 205 c 0
 260 205 312 150 312 74 c 0
 312 -32 233 -111 163 -146 c 1
 163 -89 l 1
 198 -68 218 -2 218 59 c 5
 241 19 l 1
 241 14 230 -15 188 -15 c 0
 122 -15 75 33 75 94 c 0
EndSplineSet
EndChar

StartChar: quotedbl
Encoding: 34 34 58
GlifName: quotedbl
Width: 525
VWidth: 0
Flags: HMW
LayerCount: 2
Fore
SplineSet
300 750 m 257
 455 750 l 257
 435 460 l 257
 320 460 l 257
 300 750 l 257
70 750 m 257
 225 750 l 257
 205 460 l 257
 90 460 l 257
 70 750 l 257
EndSplineSet
EndChar

StartChar: exclam
Encoding: 33 33 59
GlifName: exclam
Width: 390
VWidth: 0
Flags: HMW
LayerCount: 2
Fore
SplineSet
85 95 m 256
 85 153 134 205 195 205 c 256
 256 205 305 153 305 95 c 256
 305 37 256 -15 195 -15 c 256
 134 -15 85 37 85 95 c 256
100 700 m 257
 290 700 l 257
 220 245 l 257
 170 245 l 257
 100 700 l 257
EndSplineSet
EndChar

StartChar: quotesingle
Encoding: 39 39 60
GlifName: quotesingle
Width: 295
VWidth: 0
Flags: HMW
LayerCount: 2
Fore
SplineSet
80 750 m 257
 235 750 l 257
 205 460 l 257
 90 460 l 257
 80 750 l 257
EndSplineSet
EndChar

StartChar: numbersign
Encoding: 35 35 61
GlifName: numbersign
Width: 645
VWidth: 0
Flags: HMW
LayerCount: 2
Fore
SplineSet
60 400 m 257
 60 525 l 257
 615 525 l 257
 615 400 l 257
 60 400 l 257
30 180 m 257
 30 305 l 257
 585 305 l 257
 585 180 l 257
 30 180 l 257
430 700 m 257
 560 700 l 257
 430 0 l 257
 300 0 l 257
 430 700 l 257
215 700 m 257
 345 700 l 257
 215 0 l 257
 85 0 l 257
 215 700 l 257
EndSplineSet
EndChar

StartChar: hyphen
Encoding: 45 45 62
GlifName: hyphen
Width: 320
VWidth: 0
Flags: HMW
LayerCount: 2
Fore
SplineSet
20 215 m 257
 20 355 l 257
 300 355 l 257
 300 215 l 257
 20 215 l 257
EndSplineSet
EndChar

StartChar: dollar
Encoding: 36 36 63
GlifName: dollar
Width: 765
VWidth: 0
Flags: HMW
LayerCount: 2
Back
Fore
SplineSet
445 740 m 257
 485 740 l 257
 485 -80 l 257
 445 -80 l 257
 445 740 l 257
305 740 m 257
 345 740 l 257
 345 -80 l 257
 305 -80 l 257
 305 740 l 257
138 195 m 257
 204 151 281 118 395 118 c 256
 510 118 566 140 566 203 c 256
 566 265 537.669921875 276.068359375 398 288 c 256
 213.993164062 303.719726562 97 374 97 501 c 256
 97 635 211 710 400 710 c 256
 533 710 618 664 693 611 c 257
 616 501 l 257
 569 543 492 580 390 580 c 256
 284 580 242 559 242 507 c 256
 242 446 298.137695312 429.642578125 428 418 c 256
 591.368164062 403.353515625 715 352 715 210 c 256
 715 62 571 -10 400 -10 c 256
 236 -10 125 43 70 87 c 257
 138 195 l 257
EndSplineSet
EndChar

StartChar: bar
Encoding: 124 124 64
GlifName: bar
Width: 344
VWidth: 0
Flags: HMW
LayerCount: 2
Fore
SplineSet
100 780 m 257
 244 780 l 257
 244 -220 l 257
 100 -220 l 257
 100 780 l 257
EndSplineSet
EndChar

StartChar: zero
Encoding: 48 48 65
GlifName: zero
Width: 810
VWidth: 0
Flags: HMW
LayerCount: 2
Fore
SplineSet
210 350 m 256
 210 206 302 130 405 130 c 256
 508 130 600 206 600 350 c 256
 600 494 508 570 405 570 c 256
 302 570 210 494 210 350 c 256
45 350 m 256
 45 574 216 710 405 710 c 256
 594 710 765 574 765 350 c 256
 765 126 594 -10 405 -10 c 256
 216 -10 45 126 45 350 c 256
EndSplineSet
EndChar

StartChar: one
Encoding: 49 49 66
GlifName: one
Width: 512
VWidth: 0
Flags: HMW
LayerCount: 2
Fore
SplineSet
100 499 m 257
 100 634 l 257
 215 634 l 257
 215 499 l 257
 100 499 l 257
212 700 m 257
 372 700 l 257
 372 0 l 257
 212 0 l 257
 212 700 l 257
EndSplineSet
EndChar

StartChar: two
Encoding: 50 50 67
GlifName: two
Width: 695
VWidth: 0
Flags: HMW
LayerCount: 2
Fore
SplineSet
30 0 m 257
 131 140 l 257
 665 140 l 257
 665 0 l 257
 30 0 l 257
30 0 m 257
 30 240 232.122070312 300.587890625 362 360 c 256
 417.864257812 385.5546875 477 425 477 491 c 256
 477 542 430 571 368 571 c 256
 288 571 217 524 167 446 c 257
 72 546 l 257
 142 645 241 711 378 711 c 256
 555 711 630 612 630 508 c 256
 630 366 556.068359375 307.010742188 460 264 c 256
 349.316529013 214.44592969 264 180 234 100 c 257
 30 0 l 257
EndSplineSet
EndChar

StartChar: four
Encoding: 52 52 68
GlifName: four
Width: 743
VWidth: 0
Flags: HMW
LayerCount: 2
Fore
SplineSet
30 130 m 257
 30 260 l 1
 398 700 l 257
 593 700 l 257
 593 0 l 257
 443 0 l 257
 443 176 l 257
 443 187 l 257
 443 560 l 257
 177 250 l 257
 478 250 l 257
 515 250 l 257
 703 250 l 257
 703 130 l 257
 30 130 l 257
EndSplineSet
EndChar

StartChar: slash
Encoding: 47 47 69
GlifName: slash
Width: 665
VWidth: 0
Flags: HMW
LayerCount: 2
Fore
SplineSet
610 700 m 257
 215 0 l 257
 55 0 l 257
 450 700 l 257
 610 700 l 257
EndSplineSet
EndChar

StartChar: backslash
Encoding: 92 92 70
GlifName: backslash
Width: 665
VWidth: 0
Flags: HMW
LayerCount: 2
Fore
SplineSet
55 700 m 257
 215 700 l 257
 610 0 l 257
 450 0 l 257
 55 700 l 257
EndSplineSet
EndChar

StartChar: eight
Encoding: 56 56 71
GlifName: eight
Width: 746
VWidth: 0
Flags: HMW
LayerCount: 2
Fore
SplineSet
70 524 m 256
 70 633 193 710 373 710 c 256
 553 710 676 633 676 524 c 256
 676 405 558 340 373 340 c 256
 188 340 70 405 70 524 c 256
236 506 m 256
 236 462 293 430 373 430 c 256
 453 430 510 462 510 506 c 256
 510 552 458 585 373 585 c 256
 288 585 236 552 236 506 c 256
45 195 m 256
 45 324 188 405 373 405 c 256
 558 405 701 324 701 195 c 256
 701 76 568 -10 373 -10 c 256
 178 -10 45 76 45 195 c 256
216 222 m 256
 216 166 273 130 373 130 c 256
 473 130 530 166 530 222 c 256
 530 268 473 315 373 315 c 256
 273 315 216 268 216 222 c 256
EndSplineSet
EndChar

StartChar: nine
Encoding: 57 57 72
GlifName: nine
Width: 717
VWidth: 2309
Flags: HMW
LayerCount: 2
Fore
SplineSet
323 120 m 1
 313 -10 l 1
 203 -10 104 34 50 83 c 1
 120 191 l 1
 162 155 243 120 323 120 c 1
208 465 m 0
 208 402 280 360 359 360 c 0
 432 360 508 394 508 474 c 1
 559 420 l 1
 559 303 468 230 337 230 c 0
 226 230 58 287 58 460 c 0
 58 620 173 710 344 710 c 0
 535 710 682 600 682 370 c 0
 682 137 535 -10 313 -10 c 1
 323 120 l 1
 447 120 539 208 539 350 c 1
 508 474 l 1
 508 538 453 580 354 580 c 0
 265 580 208 539 208 465 c 0
EndSplineSet
EndChar

StartChar: three
Encoding: 51 51 73
GlifName: three
Width: 747
VWidth: 0
Flags: HMW
LayerCount: 2
Fore
SplineSet
300 337 m 257
 300 435 l 257
 470 435 515 466 515 510 c 256
 515 552 480 576 400 576 c 256
 315 576 230 543 182 472 c 257
 91 586 l 257
 170 674 279 710 394 710 c 256
 564 710 667 636 667 534 c 256
 667 395 485 337 300 337 c 257
390 -10 m 256
 205 -10 114 64 64 105 c 257
 133 238 l 257
 173 194 270 130 380 130 c 256
 500 130 543 169 543 225 c 256
 543 291 500 317 300 317 c 257
 300 415 l 257
 525 415 702 355 702 206 c 256
 702 69 565 -10 390 -10 c 256
EndSplineSet
EndChar

StartChar: five
Encoding: 53 53 74
GlifName: five
Width: 732
VWidth: 0
Flags: HMW
LayerCount: 2
Fore
SplineSet
682 240 m 256
 682 71 551 -10 376 -10 c 256
 217 -10 94 52 48 107 c 257
 132 220 l 257
 173 175 269 130 376 130 c 256
 471 130 529 159 529 240 c 256
 529 321 471 356 396 356 c 256
 329 356 262 337 211 300 c 257
 85 380 l 1
 85 700 l 257
 629 700 l 257
 629 570 l 257
 225 570 l 257
 225 443 l 257
 258 462 317 486 402 486 c 256
 562 486 682 389 682 240 c 256
EndSplineSet
EndChar

StartChar: six
Encoding: 54 54 75
GlifName: six
Width: 694
VWidth: 2309
Flags: HMW
LayerCount: 2
Fore
SplineSet
394 580 m 1
 404 710 l 1
 494 710 568 676 622 637 c 1
 558 526 l 1
 516 552 464 580 394 580 c 1
509 235 m 0
 509 298 457 340 368 340 c 0
 285 340 209 306 209 226 c 1
 158 280 l 1
 158 397 249 470 380 470 c 0
 491 470 659 413 659 240 c 0
 659 80 544 -10 373 -10 c 0
 182 -10 35 100 35 330 c 0
 35 563 182 710 404 710 c 1
 394 580 l 1
 270 580 178 492 178 350 c 1
 209 226 l 1
 209 162 264 120 373 120 c 0
 472 120 509 161 509 235 c 0
EndSplineSet
EndChar

StartChar: seven
Encoding: 55 55 76
GlifName: seven
Width: 679
VWidth: 0
Flags: HMW
LayerCount: 2
Fore
SplineSet
30 550 m 257
 30 700 l 257
 649 700 l 257
 649 581 l 1
 343 0 l 257
 152 0 l 257
 469 550 l 257
 30 550 l 257
EndSplineSet
EndChar

StartChar: plus
Encoding: 43 43 77
GlifName: plus
Width: 675
VWidth: 0
Flags: HMW
LayerCount: 2
Fore
SplineSet
90 190 m 257
 90 320 l 257
 585 320 l 257
 585 190 l 257
 90 190 l 257
265 500 m 257
 405 500 l 257
 405 10 l 257
 265 10 l 257
 265 500 l 257
EndSplineSet
EndChar

StartChar: equal
Encoding: 61 61 78
GlifName: equal
Width: 615
VWidth: 0
Flags: HMW
LayerCount: 2
Fore
SplineSet
65 75 m 257
 65 215 l 257
 550 215 l 257
 550 75 l 257
 65 75 l 257
65 290 m 257
 65 430 l 257
 550 430 l 257
 550 290 l 257
 65 290 l 257
EndSplineSet
EndChar

StartChar: percent
Encoding: 37 37 79
GlifName: percent
Width: 931
VWidth: 0
Flags: HMW
LayerCount: 2
Fore
SplineSet
530 170 m 256
 530 264 593 350 708 350 c 256
 823 350 886 264 886 170 c 256
 886 76 823 -10 708 -10 c 256
 593 -10 530 76 530 170 c 256
656 170 m 256
 656 134 678 115 708 115 c 256
 738 115 760 134 760 170 c 256
 760 206 738 225 708 225 c 256
 678 225 656 206 656 170 c 256
45 530 m 256
 45 624 108 710 223 710 c 256
 338 710 401 624 401 530 c 256
 401 436 338 350 223 350 c 256
 108 350 45 436 45 530 c 256
171 530 m 256
 171 494 193 475 223 475 c 256
 253 475 275 494 275 530 c 256
 275 566 253 585 223 585 c 256
 193 585 171 566 171 530 c 256
643 700 m 257
 808 700 l 257
 288 0 l 257
 123 0 l 257
 643 700 l 257
EndSplineSet
EndChar

StartChar: ampersand
Encoding: 38 38 80
GlifName: ampersand
Width: 817
VWidth: 0
Flags: HMW
LayerCount: 2
Fore
SplineSet
598 185 m 256
 527.931640625 53.8837890625 420 -10 295 -10 c 256
 160 -10 35 65 35 214 c 256
 35 358 160 430 295 430 c 256
 420 430 540.100585938 339.108398438 597 238 c 256
 660.168945312 125.751953125 677 141 782 141 c 1
 782 0 l 257
 627 0 578.104492188 57.2626953125 500 185 c 256
 450.108398438 266.595703125 398 330 303 330 c 256
 238 330 187 295 187 228 c 256
 187 153 250 125 305 125 c 256
 374 125 448.762695312 138.811523438 506 235 c 256
 566.16796875 336.11328125 657 470 782 490 c 257
 782 340 l 1
 697 330 632.267578125 249.123046875 598 185 c 256
127 540 m 256
 127 644 215 715 340 715 c 256
 465 715 553 644 553 540 c 256
 553 436 465 380 340 380 c 256
 215 380 127 436 127 540 c 256
258 535 m 256
 258 489 293 465 340 465 c 256
 387 465 422 489 422 535 c 256
 422 581 387 610 340 610 c 256
 293 610 258 581 258 535 c 256
EndSplineSet
EndChar

StartChar: question
Encoding: 63 63 81
GlifName: question
Width: 557
VWidth: 0
Flags: HMW
LayerCount: 2
Fore
SplineSet
160 85 m 256
 160 143 209 185 270 185 c 256
 331 185 380 143 380 85 c 256
 380 27 331 -15 270 -15 c 256
 209 -15 160 27 160 85 c 256
317 509 m 256
 317 535 291 552 258 552 c 256
 216 552 181 538 155 500 c 257
 64 583 l 257
 110 663 180 710 289 710 c 256
 394 710 477 640 477 541 c 256
 477 372 322 376 322 264 c 0
 322 255 323 236 327 225 c 257
 197 225 l 257
 195 243 193 259 193 277 c 0
 193 367 317 429 317 509 c 256
EndSplineSet
EndChar

StartChar: parenleft
Encoding: 40 40 82
GlifName: parenleft
Width: 365
VWidth: 0
Flags: HMW
LayerCount: 2
Fore
SplineSet
205 780 m 257
 345 780 l 257
 265 630 215 480 215 290 c 256
 215 100 265 -50 345 -200 c 257
 205 -200 l 257
 115 -50 60 80 60 290 c 256
 60 500 115 630 205 780 c 257
EndSplineSet
EndChar

StartChar: parenright
Encoding: 41 41 83
GlifName: parenright
Width: 365
VWidth: 0
Flags: HMW
LayerCount: 2
Fore
SplineSet
160 -200 m 257
 20 -200 l 257
 100 -50 150 100 150 290 c 256
 150 480 100 630 20 780 c 257
 160 780 l 257
 250 630 305 500 305 290 c 256
 305 80 250 -50 160 -200 c 257
EndSplineSet
EndChar

StartChar: asterisk
Encoding: 42 42 84
GlifName: asterisk
Width: 578
VWidth: 0
Flags: HMW
LayerCount: 2
Fore
SplineSet
482 619 m 257
 536 457 l 257
 294 443 l 257
 279 491 l 257
 482 619 l 257
493 340 m 257
 354 239 l 257
 266 464 l 257
 307 493 l 257
 493 340 l 257
230 236 m 257
 92 335 l 257
 277 490 l 257
 318 460 l 257
 230 236 l 257
43 457 m 257
 95 618 l 257
 299 489 l 257
 283 441 l 257
 43 457 l 257
206 700 m 257
 376 700 l 257
 316 465 l 257
 266 465 l 257
 206 700 l 257
EndSplineSet
EndChar

StartChar: less
Encoding: 60 60 85
GlifName: less
Width: 640
VWidth: 0
Flags: HMW
LayerCount: 2
Fore
SplineSet
237 262 m 257
 575 145 l 257
 575 5 l 257
 65 205 l 257
 65 310 l 257
 575 510 l 257
 575 370 l 257
 237 262 l 257
EndSplineSet
EndChar

StartChar: greater
Encoding: 62 62 86
GlifName: greater
Width: 640
VWidth: 0
Flags: HMW
LayerCount: 2
Fore
SplineSet
403 253 m 257
 65 370 l 257
 65 510 l 257
 575 310 l 257
 575 205 l 257
 65 5 l 257
 65 145 l 257
 403 253 l 257
EndSplineSet
EndChar

StartChar: bracketleft
Encoding: 91 91 87
GlifName: bracketleft
Width: 371
VWidth: 0
Flags: HMW
LayerCount: 2
Fore
SplineSet
250 640 m 257
 250 -80 l 257
 351 -80 l 257
 351 -220 l 257
 100 -220 l 257
 100 780 l 257
 351 780 l 257
 351 640 l 257
 250 640 l 257
EndSplineSet
EndChar

StartChar: bracketright
Encoding: 93 93 88
GlifName: bracketright
Width: 371
VWidth: 0
Flags: HMW
LayerCount: 2
Fore
SplineSet
121 -90 m 257
 121 640 l 257
 20 640 l 257
 20 780 l 257
 271 780 l 257
 271 -220 l 257
 20 -220 l 257
 20 -90 l 257
 121 -90 l 257
EndSplineSet
EndChar

StartChar: asciicircum
Encoding: 94 94 89
GlifName: asciicircum
Width: 610
VWidth: 0
Flags: HMW
LayerCount: 2
Fore
SplineSet
305 601 m 257
 205 460 l 257
 45 460 l 257
 225 710 l 257
 385 710 l 257
 565 460 l 257
 405 460 l 257
 305 601 l 257
EndSplineSet
EndChar

StartChar: underscore
Encoding: 95 95 90
GlifName: underscore
Width: 500
VWidth: 0
Flags: HMW
LayerCount: 2
Fore
SplineSet
0 -173 m 257
 0 -58 l 261
 500 -58 l 261
 500 -173 l 257
 0 -173 l 257
EndSplineSet
EndChar

StartChar: grave
Encoding: 96 96 91
GlifName: grave
Width: 375
VWidth: 0
Flags: HMW
LayerCount: 2
Fore
SplineSet
61 646 m 257
 180 735 l 257
 330 575 l 257
 241 496 l 257
 61 646 l 257
EndSplineSet
EndChar

StartChar: braceleft
Encoding: 123 123 92
GlifName: braceleft
Width: 381
VWidth: 0
Flags: HMW
LayerCount: 2
Fore
SplineSet
248 600 m 258
 248 490 l 258
 248 371 174 260 65 260 c 257
 65 320 l 257
 174 320 248 209 248 90 c 258
 248 -20 l 258
 248 -46 266 -70 296 -70 c 258
 331 -70 l 257
 331 -200 l 257
 271 -200 l 258
 187 -200 98 -159 98 -60 c 258
 98 120 l 258
 98 186 80 205 50 215 c 257
 50 375 l 257
 80 385 98 404 98 470 c 258
 98 640 l 258
 98 739 187 780 271 780 c 258
 331 780 l 257
 331 650 l 257
 296 650 l 258
 266 650 248 626 248 600 c 258
EndSplineSet
EndChar

StartChar: braceright
Encoding: 125 125 93
GlifName: braceright
Width: 381
VWidth: 0
Flags: HMW
LayerCount: 2
Fore
SplineSet
133 -20 m 258
 133 90 l 258
 133 209 207 320 316 320 c 257
 316 260 l 257
 207 260 133 371 133 490 c 258
 133 600 l 258
 133 626 115 650 85 650 c 258
 50 650 l 257
 50 780 l 257
 110 780 l 258
 194 780 283 739 283 640 c 258
 283 460 l 258
 283 394 301 375 331 365 c 257
 331 205 l 257
 301 195 283 176 283 110 c 258
 283 -60 l 258
 283 -159 194 -200 110 -200 c 258
 50 -200 l 257
 50 -70 l 257
 85 -70 l 258
 115 -70 133 -46 133 -20 c 258
EndSplineSet
EndChar

StartChar: asciitilde
Encoding: 126 126 94
GlifName: asciitilde
Width: 595
VWidth: 0
Flags: HMW
LayerCount: 2
Fore
SplineSet
197 176 m 257
 63 176 l 257
 61 183 60 206 60 215 c 256
 60 236 66 271 84 295 c 256
 110 330 137 347 189 347 c 256
 238 347 270.41015625 328.84765625 307 304 c 256
 335.127929688 284.8984375 352 277 370 277 c 256
 394 277 402 284 402 301 c 256
 402 309 399 313 395 323 c 257
 531 323 l 261
 533 315 535 290 535 280 c 256
 535 260 530 222 513 199 c 256
 487 165 465 152 419 152 c 256
 375 152 332 174 299 195 c 256
 267.108398438 215.294921875 238 228 223 228 c 256
 202 228 188 218 188 203 c 256
 188 196 191 184 197 176 c 257
EndSplineSet
EndChar

StartChar: uni2010
Encoding: 8208 8208 97
GlifName: uni2010
Width: 320
Flags: HW
LayerCount: 2
Fore
SplineSet
20 215 m 257
 20 355 l 257
 300 355 l 257
 300 215 l 257
 20 215 l 257
EndSplineSet
EndChar

StartChar: uni2011
Encoding: 8209 8209 98
GlifName: uni2011
Width: 320
Flags: HW
LayerCount: 2
Fore
SplineSet
20 215 m 257
 20 355 l 257
 300 355 l 257
 300 215 l 257
 20 215 l 257
EndSplineSet
EndChar

StartChar: figuredash
Encoding: 8210 8210 99
GlifName: figuredash
Width: 446
Flags: HW
LayerCount: 2
Fore
SplineSet
20 215 m 257
 20 355 l 257
 426 355 l 257
 426 215 l 257
 20 215 l 257
EndSplineSet
EndChar

StartChar: endash
Encoding: 8211 8211 100
GlifName: endash
Width: 531
Flags: HW
LayerCount: 2
Fore
SplineSet
20 215 m 257
 20 355 l 257
 511 355 l 257
 511 215 l 257
 20 215 l 257
EndSplineSet
EndChar

StartChar: emdash
Encoding: 8212 8212 101
GlifName: emdash
Width: 815
Flags: HW
LayerCount: 2
Fore
SplineSet
20 215 m 257
 20 355 l 257
 795 355 l 257
 795 215 l 257
 20 215 l 257
EndSplineSet
EndChar

StartChar: uni2015
Encoding: 8213 8213 102
GlifName: uni2015
Width: 901
Flags: HW
LayerCount: 2
Fore
SplineSet
20 215 m 257
 20 355 l 257
 881 355 l 257
 881 215 l 257
 20 215 l 257
EndSplineSet
EndChar

StartChar: perthousand
Encoding: 8240 8240 109
GlifName: perthousand
Width: 1327
VWidth: 0
Flags: HW
LayerCount: 2
Fore
SplineSet
926 170 m 256
 926 264 989 350 1104 350 c 256
 1219 350 1282 264 1282 170 c 256
 1282 76 1219 -10 1104 -10 c 256
 989 -10 926 76 926 170 c 256
1052 170 m 256
 1052 134 1074 115 1104 115 c 256
 1134 115 1156 134 1156 170 c 256
 1156 206 1134 225 1104 225 c 256
 1074 225 1052 206 1052 170 c 256
530 170 m 256
 530 264 593 350 708 350 c 256
 823 350 886 264 886 170 c 256
 886 76 823 -10 708 -10 c 256
 593 -10 530 76 530 170 c 256
656 170 m 256
 656 134 678 115 708 115 c 256
 738 115 760 134 760 170 c 256
 760 206 738 225 708 225 c 256
 678 225 656 206 656 170 c 256
45 530 m 256
 45 624 108 710 223 710 c 256
 338 710 401 624 401 530 c 256
 401 436 338 350 223 350 c 256
 108 350 45 436 45 530 c 256
171 530 m 256
 171 494 193 475 223 475 c 256
 253 475 275 494 275 530 c 256
 275 566 253 585 223 585 c 256
 193 585 171 566 171 530 c 256
643 700 m 257
 808 700 l 257
 288 0 l 257
 123 0 l 257
 643 700 l 257
EndSplineSet
EndChar

StartChar: uni2031
Encoding: 8241 8241 110
GlifName: uni2031
Width: 1721
VWidth: 0
Flags: HW
LayerCount: 2
Fore
SplineSet
1320 170 m 256
 1320 264 1383 350 1498 350 c 256
 1613 350 1676 264 1676 170 c 256
 1676 76 1613 -10 1498 -10 c 256
 1383 -10 1320 76 1320 170 c 256
1446 170 m 256
 1446 134 1468 115 1498 115 c 256
 1528 115 1550 134 1550 170 c 256
 1550 206 1528 225 1498 225 c 256
 1468 225 1446 206 1446 170 c 256
926 170 m 256
 926 264 989 350 1104 350 c 256
 1219 350 1282 264 1282 170 c 256
 1282 76 1219 -10 1104 -10 c 256
 989 -10 926 76 926 170 c 256
1052 170 m 256
 1052 134 1074 115 1104 115 c 256
 1134 115 1156 134 1156 170 c 256
 1156 206 1134 225 1104 225 c 256
 1074 225 1052 206 1052 170 c 256
530 170 m 256
 530 264 593 350 708 350 c 256
 823 350 886 264 886 170 c 256
 886 76 823 -10 708 -10 c 256
 593 -10 530 76 530 170 c 256
656 170 m 256
 656 134 678 115 708 115 c 256
 738 115 760 134 760 170 c 256
 760 206 738 225 708 225 c 256
 678 225 656 206 656 170 c 256
45 530 m 256
 45 624 108 710 223 710 c 256
 338 710 401 624 401 530 c 256
 401 436 338 350 223 350 c 256
 108 350 45 436 45 530 c 256
171 530 m 256
 171 494 193 475 223 475 c 256
 253 475 275 494 275 530 c 256
 275 566 253 585 223 585 c 256
 193 585 171 566 171 530 c 256
643 700 m 257
 808 700 l 257
 288 0 l 257
 123 0 l 257
 643 700 l 257
EndSplineSet
EndChar

StartChar: cent
Encoding: 162 162 112
GlifName: cent
Width: 845
VWidth: 0
Flags: HW
LayerCount: 2
Fore
SplineSet
465 740 m 257
 505 740 l 257
 505 -80 l 257
 465 -80 l 257
 465 740 l 257
325 740 m 257
 365 740 l 257
 365 -80 l 257
 325 -80 l 257
 325 740 l 257
205 350 m 256
 205 212 277 130 425 130 c 256
 514 130 579 180 638 232 c 257
 730 115 l 257
 661 63 587 -10 425 -10 c 256
 182 -10 40 136 40 350 c 256
 40 564 182 710 425 710 c 256
 587 710 651 647 710 605 c 257
 619 486 l 257
 570 528 514 570 425 570 c 256
 277 570 205 488 205 350 c 256
EndSplineSet
EndChar

StartChar: yen
Encoding: 165 165 113
GlifName: yen
Width: 701
VWidth: 0
Flags: HW
LayerCount: 2
Fore
SplineSet
91 321 m 257
 91 361 l 257
 605 361 l 257
 605 321 l 257
 91 321 l 257
91 201 m 257
 91 241 l 257
 605 241 l 257
 605 201 l 257
 91 201 l 257
531 700 m 257
 706 700 l 257
 430 272 l 257
 430 0 l 257
 266 0 l 257
 266 271 l 257
 -5 700 l 257
 175 700 l 257
 348 396 l 257
 531 700 l 257
EndSplineSet
EndChar

StartChar: sterling
Encoding: 163 163 114
GlifName: sterling
Width: 756
VWidth: 0
Flags: HW
LayerCount: 2
Fore
SplineSet
70 399 m 257
 70 439 l 257
 540 439 l 257
 540 399 l 257
 70 399 l 257
70 279 m 257
 70 319 l 257
 540 319 l 257
 540 279 l 257
 70 279 l 257
587 524 m 1
 553 555 477 580 391 580 c 0
 301 580 255 560 255 505 c 0
 255 402 319 391 319 279 c 0
 319 203 267 157 184 90 c 1
 169 100 l 1
 230 131 231 187 317 187 c 0
 443 187 456 127 573 127 c 0
 608 127 665 136 706 150 c 1
 706 0 l 1
 665 -14 598 -23 563 -23 c 0
 426 -23 393 42 267 42 c 0
 221 42 177 23 129 -15 c 1
 40 90 l 1
 93 147 172 203 172 259 c 0
 172 371 100 395 100 520 c 0
 100 650 214 720 398 720 c 0
 531 720 621 670 666 630 c 1
 587 524 l 1
EndSplineSet
EndChar

StartChar: brokenbar
Encoding: 166 166 115
GlifName: brokenbar
Width: 344
VWidth: 0
Flags: HW
LayerCount: 2
Fore
SplineSet
100 780 m 257
 244 780 l 257
 244 380 l 257
 100 380 l 257
 100 780 l 257
100 180 m 257
 244 180 l 257
 244 -220 l 257
 100 -220 l 257
 100 180 l 257
EndSplineSet
EndChar

StartChar: copyright
Encoding: 169 169 116
GlifName: copyright
Width: 930
Flags: HW
LayerCount: 2
Fore
SplineSet
50 375 m 0
 50 588 232 760 465 760 c 0
 698 760 880 588 880 375 c 0
 880 162 698 -10 465 -10 c 0
 232 -10 50 162 50 375 c 0
87 375 m 0
 87 181 251 26 465 26 c 0
 679 26 843 181 843 375 c 0
 843 569 679 724 465 724 c 0
 251 724 87 569 87 375 c 0
EndSplineSet
Refer: 3 67 N 0.6 0 0 0.6 184 170 2
EndChar

StartChar: registered
Encoding: 174 174 117
GlifName: registered
Width: 930
Flags: HW
LayerCount: 2
Fore
SplineSet
50 375 m 0
 50 588 232 760 465 760 c 0
 698 760 880 588 880 375 c 0
 880 162 698 -10 465 -10 c 0
 232 -10 50 162 50 375 c 0
87 375 m 0
 87 181 251 26 465 26 c 0
 679 26 843 181 843 375 c 0
 843 569 679 724 465 724 c 0
 251 724 87 569 87 375 c 0
EndSplineSet
Refer: 13 82 S 0.6 0 0 0.6 220 174 2
EndChar

StartChar: macron
Encoding: 175 175 119
GlifName: macron
Width: 369
Flags: HW
LayerCount: 2
Fore
SplineSet
20 385 m 257
 20 485 l 257
 349 485 l 257
 349 385 l 257
 20 385 l 257
EndSplineSet
EndChar

StartChar: plusminus
Encoding: 177 177 121
GlifName: plusminus
Width: 536
Flags: HW
LayerCount: 2
Fore
SplineSet
20 30 m 257
 20 170 l 257
 515 170 l 257
 515 30 l 257
 20 30 l 257
EndSplineSet
Refer: 77 43 N 1 0 0 1 -70 210 2
EndChar

StartChar: degree
Encoding: 176 176 122
GlifName: degree
Width: 319
Flags: HW
LayerCount: 2
Fore
SplineSet
40 680 m 0
 40 746 94 800 160 800 c 0
 226 800 280 746 280 680 c 0
 280 614 226 560 160 560 c 0
 94 560 40 614 40 680 c 0
114 680 m 4
 114 653 133 635 160 635 c 4
 187 635 205 653 205 680 c 4
 205 707 187 725 160 725 c 4
 133 725 114 707 114 680 c 4
EndSplineSet
EndChar

StartChar: circumflex
Encoding: 710 710 123
GlifName: circumflex
Width: 424
Flags: HW
AnchorPoint: "top" 212 700 mark 0
LayerCount: 2
Fore
SplineSet
212 884 m 257
 152 793 l 257
 22 793 l 257
 132 943 l 257
 292 943 l 257
 402 793 l 257
 272 793 l 257
 212 884 l 257
EndSplineSet
EndChar

StartChar: breve
Encoding: 728 728 125
GlifName: breve
Width: 299
VWidth: 1154
Flags: HW
AnchorPoint: "top" 150 700 mark 0
LayerCount: 2
Fore
SplineSet
105 919 m 1
 105 890 116 880 150 880 c 0
 184 880 195 890 195 919 c 1
 310 919 l 1
 310 838 250 770 150 770 c 0
 50 770 -10 838 -10 919 c 1
 105 919 l 1
EndSplineSet
EndChar

StartChar: ring
Encoding: 730 730 127
GlifName: ring
Width: 319
VWidth: 0
Flags: HW
AnchorPoint: "top" 160 700 mark 0
LayerCount: 2
Fore
SplineSet
40 852 m 0
 40 918 94 972 160 972 c 0
 226 972 280 918 280 852 c 0
 280 786 226 732 160 732 c 0
 94 732 40 786 40 852 c 0
114 852 m 0
 114 825 133 807 160 807 c 0
 187 807 205 825 205 852 c 0
 205 879 187 897 160 897 c 0
 133 897 114 879 114 852 c 0
EndSplineSet
EndChar

StartChar: ogonek
Encoding: 731 731 128
GlifName: ogonek
Width: 549
Flags: HW
AnchorPoint: "cedilla" 282 24 mark 0
LayerCount: 2
Fore
SplineSet
388 -114 m 1
 374 -142 343 -186 263 -186 c 0
 192 -186 135 -151 135 -91 c 0
 135 -1 243 23 304 43 c 1
 316 24 l 1
 295 8 278 -32 278 -75 c 0
 278 -112 302 -134 326 -134 c 0
 344 -134 365 -127 379 -108 c 1
 388 -114 l 1
EndSplineSet
EndChar

StartChar: tilde
Encoding: 732 732 129
GlifName: tilde
Width: 447
VWidth: 0
Flags: HW
AnchorPoint: "top" 234 750 mark 0
LayerCount: 2
Fore
SplineSet
140 836 m 257
 16 836 l 257
 14 843 13 866 13 875 c 256
 13 906 18.84765625 941.115234375 37 965 c 256
 56 990 86 1007 127 1007 c 256
 174 1007 197.359705792 988.511969005 222 971 c 256
 252.424804688 949.376953125 267 922 292 922 c 256
 310 922 315 932 315 951 c 256
 315 959 312 973 308 983 c 257
 434 983 l 257
 436 975 438 950 438 940 c 256
 438 900 433.16015625 871.880859375 416 849 c 256
 398 825 376 812 330 812 c 256
 286 812 259.510742188 823.541015625 229 855 c 256
 210.060211457 874.528417506 193 897 169 897 c 256
 148 897 131 888 131 863 c 256
 131 856 134 844 140 836 c 257
EndSplineSet
EndChar

StartChar: uni0304
Encoding: 772 772 135
GlifName: uni0304
Width: 0
Flags: HW
AnchorPoint: "top" -209 700 mark 0
LayerCount: 2
Fore
SplineSet
-329 780 m 257
 -329 900 l 257
 -89 900 l 257
 -89 780 l 257
 -329 780 l 257
EndSplineSet
EndChar

StartChar: uni0307
Encoding: 775 775 139
GlifName: uni0307
Width: 0
Flags: HW
LayerCount: 2
Fore
SplineSet
-288 574 m 256
 -288 632 -239 684 -178 684 c 256
 -117 684 -68 632 -68 574 c 256
 -68 516 -117 464 -178 464 c 256
 -239 464 -288 516 -288 574 c 256
EndSplineSet
EndChar

StartChar: cedilla
Encoding: 184 184 149
GlifName: cedilla
Width: 549
Flags: HW
AnchorPoint: "cedilla" 312 0 mark 0
LayerCount: 2
Fore
SplineSet
258 -168 m 0
 258 -127 221 -114 176 -114 c 1
 266 6 l 1
 310 6 l 1
 250 -74 l 1
 362 -77 409 -99 409 -155 c 0
 409 -205 351 -254 190 -254 c 5
 190 -218 l 1
 229 -218 258 -198 258 -168 c 0
EndSplineSet
EndChar

StartChar: logicalnot
Encoding: 172 172 150
GlifName: logicalnot
Width: 575
Flags: HW
LayerCount: 2
Fore
SplineSet
376 475 m 1
 60 475 l 1
 60 615 l 1
 516 615 l 1
 516 373 l 1
 376 373 l 1
 376 475 l 1
EndSplineSet
EndChar

StartChar: acute
Encoding: 180 180 155
GlifName: acute
Width: 375
VWidth: 0
Flags: HW
LayerCount: 2
Fore
SplineSet
314 646 m 257
 134 496 l 257
 45 575 l 257
 195 735 l 257
 314 646 l 257
EndSplineSet
EndChar

StartChar: Oslash
Encoding: 216 216 172
GlifName: O_slash
Width: 910
VWidth: 0
Flags: HW
LayerCount: 2
Fore
SplineSet
850 750 m 257
 175 -50 l 257
 55 -50 l 257
 730 750 l 257
 850 750 l 257
EndSplineSet
Refer: 1 79 N 1 0 0 1 0 0 2
EndChar

StartChar: AE
Encoding: 198 198 178
GlifName: A_E_
Width: 1196
VWidth: 0
Flags: HW
LayerCount: 2
Fore
SplineSet
179 180 m 257
 209 310 l 257
 579 310 l 257
 609 180 l 257
 179 180 l 257
572 700 m 257
 172 0 l 257
 10 0 l 257
 410 700 l 257
 572 700 l 257
607 0 m 257
 607 140 l 257
 1151 140 l 257
 1151 0 l 257
 607 0 l 257
607 560 m 257
 607 700 l 257
 1151 700 l 257
 1151 560 l 257
 607 560 l 257
607 290 m 257
 607 425 l 257
 981 425 l 257
 981 290 l 257
 607 290 l 257
535 700 m 257
 695 700 l 257
 695 0 l 257
 535 0 l 257
 535 700 l 257
EndSplineSet
EndChar

StartChar: paragraph
Encoding: 182 182 179
GlifName: paragraph
Width: 680
Flags: HW
LayerCount: 2
Fore
SplineSet
405 580 m 1
 405 700 l 1
 475 700 l 1
 475 580 l 1
 405 580 l 1
595 700 m 1
 595 -80 l 1
 475 -80 l 1
 475 700 l 1
 595 700 l 1
405 700 m 1
 405 -80 l 1
 285 -80 l 1
 285 700 l 1
 405 700 l 1
285 240 m 2
 145 240 50 325 50 470 c 0
 50 615 145 700 285 700 c 2
 365 700 l 1
 365 240 l 1
 285 240 l 2
EndSplineSet
EndChar

StartChar: uni1E9E
Encoding: 7838 7838 181
GlifName: uni1E_9E_
Width: 861
VWidth: 0
Flags: HW
LayerCount: 2
Fore
SplineSet
545 -12 m 0
 439 -12 351 21 295 56 c 1
 339 177 l 1
 389 148 481 114 541 114 c 0
 621 114 667 132 667 172 c 0
 667 256 453 243 453 369 c 0
 453 455 569 502 599 531 c 1
 569 549 511 581 422 581 c 0
 302 581 227.3890354 546.997083701 228 419 c 2
 230 0 l 1
 75 0 l 1
 75 430 l 2
 75 649 241 712 431 712 c 0
 598 712 731 616 793 548 c 1
 743 502 615 436 615 384 c 0
 615 312 831 335 831 179 c 0
 831 65 713 -12 545 -12 c 0
EndSplineSet
EndChar

StartChar: Thorn
Encoding: 222 222 183
GlifName: T_horn
Width: 753
VWidth: 0
Flags: HW
LayerCount: 2
Fore
SplineSet
85 700 m 257
 235 700 l 257
 235 0 l 257
 85 0 l 257
 85 700 l 257
172 431 m 257
 172 571 l 257
 480 571 l 258
 605 571 718 525 718 371 c 256
 718 218 605 171 480 171 c 258
 172 171 l 257
 172 311 l 257
 470 311 l 258
 539 311 563 335 563 371 c 256
 563 407 539 431 470 431 c 258
 172 431 l 257
EndSplineSet
EndChar

StartChar: Hbar
Encoding: 294 294 260
GlifName: H_bar
Width: 835
VWidth: 0
Flags: HW
LayerCount: 2
Fore
SplineSet
5 485 m 257
 5 585 l 257
 830 585 l 257
 830 485 l 257
 5 485 l 257
EndSplineSet
Refer: 0 72 N 1 0 0 1 0 0 2
EndChar

StartChar: Lslash
Encoding: 321 321 283
GlifName: L_slash
Width: 720
VWidth: 0
Flags: HW
LayerCount: 2
Fore
SplineSet
0 199 m 257
 0 369 l 257
 400 580 l 257
 400 410 l 257
 0 199 l 257
EndSplineSet
Refer: 9 76 N 1 0 0 1 0 0 2
EndChar

StartChar: Eng
Encoding: 330 330 291
GlifName: E_ng
Width: 792
VWidth: 0
Flags: HW
LayerCount: 2
Fore
SplineSet
230 479 m 257
 166 550 l 257
 251 640 311 720 454 720 c 256
 608 720 712 649 712 520 c 258
 712 440 l 257
 557 440 l 257
 557 475 l 258
 557 564 501 590 431 590 c 256
 345 590 274 540 230 479 c 257
85 700 m 257
 240 700 l 257
 240 0 l 257
 85 0 l 257
 85 700 l 257
367 167 m 257
 401 140 445 120 491 120 c 256
 541 120 557 136 557 185 c 258
 557 440 l 257
 712 440 l 257
 712 140 l 258
 712 31 608 -20 494 -20 c 256
 411 -20 341 20 296 50 c 257
 367 167 l 257
EndSplineSet
EndChar

StartChar: OE
Encoding: 338 338 313
GlifName: O_E_
Width: 1271
VWidth: 0
Flags: HW
LayerCount: 2
Fore
SplineSet
405 700 m 258
 720 700 l 257
 720 560 l 257
 415 560 l 258
 287 560 215 493 215 350 c 256
 215 207 287 140 415 140 c 258
 720 140 l 257
 720 0 l 257
 405 0 l 258
 201 0 55 131 55 350 c 256
 55 569 201 700 405 700 c 258
682 0 m 257
 682 140 l 257
 1226 140 l 257
 1226 0 l 257
 682 0 l 257
682 560 m 257
 682 700 l 257
 1226 700 l 257
 1226 560 l 257
 682 560 l 257
682 290 m 257
 682 425 l 257
 1056 425 l 257
 1056 290 l 257
 682 290 l 257
610 700 m 257
 760 700 l 257
 760 0 l 257
 610 0 l 257
 610 700 l 257
EndSplineSet
EndChar

StartChar: Tbar
Encoding: 358 358 324
GlifName: T_bar
Width: 705
VWidth: 0
Flags: HW
LayerCount: 2
Fore
SplineSet
110 305 m 257
 110 405 l 257
 575 405 l 257
 575 305 l 257
 110 305 l 257
EndSplineSet
Refer: 8 84 N 1 0 0 1 0 0 2
EndChar

StartChar: guillemotleft
Encoding: 171 171 346
GlifName: guillemotleft
Width: 582
VWidth: 0
Flags: HW
LayerCount: 2
Fore
SplineSet
418 259 m 1
 548 85 l 1
 461 12 l 1
 275 255 l 1
 461 498 l 1
 548 425 l 1
 418 259 l 1
181 259 m 1
 311 85 l 1
 223 12 l 1
 38 255 l 1
 223 498 l 1
 311 425 l 1
 181 259 l 1
EndSplineSet
EndChar

StartChar: guillemotright
Encoding: 187 187 347
GlifName: guillemotright
Width: 582
VWidth: 0
Flags: HW
LayerCount: 2
Fore
SplineSet
164 251 m 1
 34 425 l 1
 121 498 l 1
 307 255 l 1
 121 12 l 1
 34 85 l 1
 164 251 l 1
401 251 m 1
 271 425 l 1
 359 498 l 1
 544 255 l 1
 359 12 l 1
 271 85 l 1
 401 251 l 1
EndSplineSet
EndChar

StartChar: dagger
Encoding: 8224 8224 348
GlifName: dagger
Width: 594
VWidth: 0
Flags: HW
LayerCount: 2
Fore
SplineSet
90 540 m 1
 505 540 l 1
 505 410 l 1
 90 410 l 1
 90 540 l 1
225 700 m 1
 370 700 l 1
 370 -150 l 1
 225 -150 l 1
 225 700 l 1
EndSplineSet
EndChar

StartChar: daggerdbl
Encoding: 8225 8225 349
GlifName: daggerdbl
Width: 594
VWidth: 0
Flags: HW
LayerCount: 2
Fore
SplineSet
90 175 m 1
 505 175 l 1
 505 40 l 1
 90 40 l 1
 90 175 l 1
90 540 m 1
 505 540 l 1
 505 405 l 1
 90 405 l 1
 90 540 l 1
225 700 m 1
 370 700 l 1
 370 -150 l 1
 225 -150 l 1
 225 700 l 1
EndSplineSet
EndChar

StartChar: bullet
Encoding: 8226 8226 350
GlifName: bullet
Width: 370
VWidth: 0
Flags: HW
LayerCount: 2
Fore
SplineSet
75 426 m 256
 75 484 124 536 185 536 c 256
 246 536 295 484 295 426 c 256
 295 368 246 316 185 316 c 256
 124 316 75 368 75 426 c 256
EndSplineSet
EndChar

StartChar: guilsinglleft
Encoding: 8249 8249 351
GlifName: guilsinglleft
Width: 364
VWidth: 0
Flags: HW
LayerCount: 2
Fore
SplineSet
181 259 m 1
 311 85 l 1
 223 12 l 1
 38 255 l 1
 223 498 l 1
 311 425 l 1
 181 259 l 1
EndSplineSet
EndChar

StartChar: guilsinglright
Encoding: 8250 8250 352
GlifName: guilsinglright
Width: 365
VWidth: 0
Flags: HW
LayerCount: 2
Fore
SplineSet
184 251 m 1
 54 425 l 1
 141 498 l 1
 327 255 l 1
 141 12 l 1
 54 85 l 1
 184 251 l 1
EndSplineSet
EndChar

StartChar: Euro
Encoding: 8364 8364 354
GlifName: E_uro
Width: 855
VWidth: 0
Flags: HW
LayerCount: 2
Fore
SplineSet
5 399 m 257
 5 439 l 257
 475 439 l 257
 475 399 l 257
 5 399 l 257
5 279 m 257
 5 319 l 257
 475 319 l 257
 475 279 l 257
 5 279 l 257
215 350 m 256
 215 212 307 130 475 130 c 256
 584 130 669 180 728 232 c 257
 820 115 l 257
 751 63 637 -10 475 -10 c 256
 212 -10 50 136 50 350 c 256
 50 564 212 710 475 710 c 256
 637 710 741 647 800 605 c 257
 709 486 l 257
 660 528 584 570 475 570 c 256
 307 570 215 488 215 350 c 256
EndSplineSet
EndChar

